# xmcd
#
# Track frame offsets:
#	150
#	14215
#	29416
#	43562
#	58742
#	73716
#	88407
#	101882
#	116693
#	129506
#	144749
#	158809
#	174550
#	185234
#
# Disc length: 2689 seconds
#
# Revision: 0
# Processed by: cddbd v1.5.2PL0 Copyright (c) Steve Scherf et al.
# Submitted via: audiograbber 1.83.01
#
DISCID=d90a7f0e
DTITLE=Marc Pircher - Alles wird gut 
DYEAR=2013
DGENRE=volkstümlich
TTITLE0=Alles wird gut
TTITLE1=Nimm mich mit zu Dir nach Hause
TTITLE2=Fort von Ihr
TTITLE3=I dank Dir fuer den Sommer
TTITLE4=Iha iha iha ho - Esellied 2013
TTITLE5=Schoenes Land Tirol
TTITLE6=In Zeiten wie diesen
TTITLE7=Ciao Lady ciao
TTITLE8=Mei Traumschiff steht am Achensee
TTITLE9=Ich bin mit Dir dem Himmel nah
TTITLE10=Komm nach Tirol
TTITLE11=Will mich noch 1000 mal verlieben
TTITLE12=Ay ay ay Polka
TTITLE13=Ich geb Dich frei
EXTD=
EXTT0=
EXTT1=
EXTT2=
EXTT3=
EXTT4=
EXTT5=
EXTT6=
EXTT7=
EXTT8=
EXTT9=
EXTT10=
EXTT11=
EXTT12=
EXTT13=
PLAYORDER=
